<?xml version="1.0" encoding="utf-8"?>
<!-- Generator: Adobe Illustrator 17.1.0, SVG Export Plug-In . SVG Version: 6.00 Build 0)  -->
<!DOCTYPE svg PUBLIC "-//W3C//DTD SVG 1.1//EN" "http://www.w3.org/Graphics/SVG/1.1/DTD/svg11.dtd">
<svg version="1.1" id="Layer_1" xmlns="http://www.w3.org/2000/svg" xmlns:xlink="http://www.w3.org/1999/xlink" x="0px" y="0px"
	 viewBox="0 0 61.733 72.074" enable-background="new 0 0 61.733 72.074" xml:space="preserve">
<path fill="#666766" d="M60.642,48.688c-1.005-2.06-2.651-3.969-4.896-5.673c-1.982-1.506-4.384-2.818-7.138-3.9
	c-2.585-1.014-5.419-1.799-8.418-2.331c-2.101-0.372-4.271-0.608-6.473-0.723l0.584-11.408c5.367-1.419,9.332-6.296,9.332-12.11
	C43.635,5.616,38.019,0,31.093,0c-6.927,0-12.541,5.616-12.541,12.542c0,5.767,3.898,10.611,9.197,12.076l0.584,11.423
	c-2.312,0.105-4.588,0.351-6.789,0.742c-2.999,0.531-5.833,1.317-8.42,2.331c-2.753,1.082-5.153,2.395-7.137,3.9
	c-2.242,1.706-3.89,3.613-4.896,5.673c-1.061,2.17-1.347,4.399-0.862,6.627c-0.003,0.005-0.009,0.005-0.009,0.007
	c0,0.005,0,0.007,0.001,0.011l0.16,0.735l0.158,0.715c0.086,0.398,0.203,0.805,0.356,1.243l0.015,0.046l0.02,0.057
	c0.135,0.376,0.299,0.758,0.501,1.172l0.025,0.055l0.044,0.09c0.189,0.375,0.41,0.762,0.661,1.153l0.041,0.064l0.062,0.096
	c0.24,0.367,0.514,0.741,0.812,1.112l0.04,0.05l0.085,0.106c0.3,0.366,0.633,0.735,0.989,1.101c0.057,0.059,0.112,0.114,0.171,0.172
	c0.365,0.364,0.751,0.722,1.147,1.056l0.1,0.082l0.066,0.057c0.44,0.367,0.898,0.72,1.357,1.047l0.106,0.074l0.05,0.032
	c0.522,0.368,1.028,0.696,1.547,1.01c0.151,0.09,0.305,0.177,0.457,0.265l0.056,0.032l0.125,0.072
	c0.08,0.046,0.161,0.094,0.245,0.14c0.636,0.351,1.318,0.698,2.024,1.024l0.05,0.023l0.104,0.047
	c0.689,0.314,1.392,0.611,2.092,0.878l0.057,0.021l0.097,0.036c0.736,0.279,1.51,0.545,2.301,0.79l0.081,0.022l0.082,0.025
	c0.798,0.243,1.623,0.467,2.45,0.667l0.12,0.03c0.911,0.216,1.811,0.403,2.704,0.561l0.042,0.007
	c0.465,0.082,0.928,0.136,1.391,0.204c0.028,0.004,0.053,0.007,0.081,0.012c0.462,0.068,0.927,0.15,1.392,0.204
	c0.048,0.007,0.096,0.01,0.145,0.016c0.943,0.109,1.902,0.191,2.854,0.246l0.152,0.009c1.027,0.058,2.047,0.087,3.032,0.087
	c0.51,0,1.019-0.029,1.529-0.044c0.02-0.001,0.042-0.001,0.062-0.001c0.5-0.016,1.002-0.016,1.497-0.044l0.053-0.003
	c0.968-0.056,1.946-0.139,2.905-0.25l0.122-0.014c0.907-0.107,1.832-0.24,2.749-0.4l0.229-0.04c0.896-0.16,1.762-0.341,2.6-0.539
	l0.074-0.019l0.077-0.017c0.797-0.19,1.609-0.414,2.414-0.658c0.115-0.035,0.229-0.072,0.34-0.109l0.255-0.083
	c0.614-0.195,1.152-0.382,1.653-0.565c0.249-0.094,0.492-0.188,0.736-0.284c0.486-0.19,0.976-0.396,1.454-0.61l0.146-0.063
	c0.164-0.072,0.33-0.146,0.488-0.22c0.626-0.293,1.22-0.596,1.762-0.892c0.227-0.124,0.448-0.25,0.665-0.374l0.123-0.073
	l0.177-0.104c0.333-0.199,0.657-0.402,0.971-0.607l0.036-0.023c0.324-0.216,0.638-0.437,0.944-0.662l0.093-0.067l0.057-0.044
	c0.352-0.261,0.702-0.537,1.04-0.822l0.061-0.048l0.099-0.082c0.33-0.281,0.659-0.585,0.982-0.899l0.13-0.132l0.054-0.053
	c0.302-0.305,0.566-0.587,0.807-0.864l0.038-0.042l0.04-0.046c0.246-0.289,0.489-0.596,0.741-0.943
	c0.063-0.087,0.129-0.174,0.191-0.263c0.066-0.097,0.132-0.19,0.194-0.288c0.08-0.117,0.156-0.237,0.229-0.357
	c0.058-0.092,0.116-0.186,0.17-0.277c0.075-0.126,0.144-0.257,0.216-0.385c0.059-0.109,0.1-0.188,0.142-0.265
	c0.072-0.142,0.137-0.28,0.202-0.421l0.036-0.075c0.022-0.052,0.048-0.103,0.07-0.155c0.089-0.198,0.169-0.398,0.244-0.6
	l0.034-0.101l0.026-0.073c0.057-0.159,0.109-0.316,0.158-0.475L61,57.534l0.033-0.113c0.061-0.211,0.118-0.423,0.163-0.639
	l0.155-0.709l0.155-0.71l-0.011-0.001c0.003-0.007,0.003-0.012,0.005-0.019c0.003-0.006,0.013-0.006,0.013-0.012
	c0.001-0.005,0.002-0.009,0.002-0.012c0-0.006-0.007-0.006-0.009-0.008C61.988,53.068,61.701,50.853,60.642,48.688z M24.799,12.271
	c-1.754-0.648-2.579-2.787-1.844-4.776c0.736-1.993,2.754-3.08,4.508-2.433c1.755,0.648,2.58,2.787,1.844,4.779
	C28.57,11.83,26.552,12.92,24.799,12.271z M28.528,63.585h-0.003l0.018-0.576L28.528,63.585z M53.337,52.936
	c-0.126,0.477-0.293,0.935-0.498,1.365c-0.729,1.528-1.965,2.951-3.675,4.231c-1.812,1.354-4.058,2.478-6.673,3.337
	c-2.777,0.914-5.818,1.479-9.039,1.681l-0.24-7.15l-0.001-0.04H33.17h-4.422h-0.04l-0.002,0.04l-0.221,7.162
	c-3.243-0.188-6.311-0.744-9.119-1.653c-2.641-0.854-4.91-1.978-6.743-3.337c-1.729-1.285-2.98-2.714-3.72-4.247
	c-0.212-0.443-0.384-0.914-0.51-1.399c-0.002-0.009-0.002-0.016-0.005-0.022l0.003-0.003l-0.004-0.084
	c-0.003-0.095-0.005-0.189-0.005-0.284c0,0,0.002-0.024,0.002-0.047c0-0.022,0-0.047,0-0.047s0.001-0.013,0.001-0.025
	c0.001-0.015,0.002-0.027,0.002-0.027l0.001-0.055c0.001-0.045,0.003-0.086,0.003-0.13c0.006-0.108,0.014-0.218,0.025-0.329
	c0,0,0.002-0.016,0.003-0.033c0.002-0.015,0.004-0.033,0.004-0.033c0.014-0.105,0.023-0.185,0.033-0.263
	c0.015-0.099,0.031-0.198,0.049-0.295h9.712h0.046l-0.003-0.044l0.312-3.5l0.011-0.049h-0.052h-8.375l0.055-0.075
	c0.065-0.082,0.129-0.165,0.195-0.247c0.062-0.075,0.126-0.153,0.189-0.228c0.082-0.093,0.151-0.173,0.222-0.254
	c0.077-0.081,0.154-0.166,0.234-0.25c0.077-0.08,0.159-0.163,0.24-0.244c0.053-0.05,0.107-0.104,0.16-0.156h0.001l0.045-0.042
	l0.042-0.042c0.085-0.077,0.17-0.157,0.258-0.235c0.098-0.086,0.196-0.173,0.295-0.26c0.102-0.085,0.204-0.171,0.309-0.255
	c0,0,0.016-0.011,0.031-0.022c0.018-0.014,0.031-0.028,0.031-0.028c0.085-0.064,0.167-0.131,0.254-0.195
	c0.107-0.082,0.214-0.163,0.323-0.244c0.136-0.099,0.273-0.195,0.414-0.29c0,0,0.018-0.014,0.037-0.025
	c0.019-0.012,0.037-0.025,0.037-0.025c0.137-0.092,0.242-0.162,0.349-0.231c0.144-0.093,0.288-0.185,0.437-0.274l0.239-0.14
	l0.048-0.029l0.068-0.042l0.048-0.027l0.044-0.025c0.266-0.153,0.538-0.306,0.817-0.448l0.092-0.045l0.088-0.043
	c0.074-0.04,0.147-0.074,0.221-0.111l0.067-0.032l0.121-0.062c0.084-0.042,0.171-0.085,0.258-0.127
	c0.156-0.071,0.315-0.141,0.474-0.212l0.126-0.055l0.075-0.034l0.075-0.034l0.094-0.042c0.33-0.141,0.631-0.261,0.938-0.377
	l0.166-0.062l0.053-0.021c0.064-0.023,0.127-0.048,0.19-0.068l0.094-0.036l0.182-0.066c0.229-0.082,0.464-0.16,0.698-0.238
	l0.146-0.044l0.101-0.033l0.177-0.055l0.139-0.044l0.149-0.047c0.238-0.071,0.479-0.14,0.721-0.207l0.142-0.035l0.093-0.024
	c0.107-0.028,0.218-0.057,0.327-0.084l0.137-0.036c0.101-0.027,0.202-0.053,0.303-0.075c0.186-0.047,0.374-0.089,0.561-0.129
	l0.101-0.023l0.108-0.023l0.104-0.025l0.049-0.011h0.001l0.099-0.022c0.343-0.072,0.691-0.138,1.04-0.201l0.108-0.017l0.109-0.018
	l0.326-0.054l0.141-0.024c0.124-0.019,0.248-0.041,0.375-0.06c0.191-0.027,0.384-0.056,0.576-0.079l0.129-0.019l0.123-0.015
	l0.049-0.006l0.049-0.006l0.076-0.009l0.157-0.021c0.195-0.021,0.393-0.043,0.588-0.064c0.196-0.018,0.396-0.038,0.593-0.055
	l0.077-0.006l0.076-0.006l0.3-0.025c0.151-0.01,0.303-0.021,0.455-0.03c0.047-0.002,0.095-0.005,0.143-0.008l0.509,9.956h3.964
	l0.509-9.936l0.268,0.018l0.413,0.031c0.136,0.014,0.273,0.025,0.409,0.037l0.418,0.042c0.14,0.015,0.277,0.03,0.416,0.047
	l0.37,0.046c-0.002,0,0.044,0.006,0.044,0.006l0,0c0.137,0.018,0.273,0.036,0.41,0.054c0.146,0.021,0.292,0.042,0.438,0.064
	c0.146,0.021,0.29,0.045,0.436,0.068l0.163,0.026l0.077,0.014l0.056,0.011l0.068,0.011l0.066,0.011
	c0.145,0.025,0.286,0.051,0.429,0.079c0.161,0.028,0.32,0.062,0.479,0.092c0.158,0.033,0.317,0.066,0.475,0.101
	c0.157,0.035,0.315,0.071,0.472,0.105c0.156,0.036,0.311,0.073,0.468,0.111c0.181,0.046,0.36,0.092,0.54,0.141
	c0.228,0.059,0.419,0.111,0.607,0.166c0.19,0.054,0.377,0.108,0.564,0.166l0.128,0.04l0.113,0.037l0.042,0.011l0.048,0.016
	l0.105,0.034l0.12,0.039c0.067,0.021,0.134,0.046,0.2,0.07c0.054,0.021,0.108,0.041,0.165,0.061
	c0.368,0.125,0.731,0.254,1.087,0.394c0.183,0.07,0.359,0.143,0.538,0.215l0.185,0.073c0.095,0.039,0.19,0.074,0.282,0.115
	c0.104,0.046,0.203,0.094,0.302,0.141l0.207,0.097c0.052,0.025,0.105,0.045,0.157,0.069c0.06,0.025,0.117,0.051,0.174,0.076
	c0.032,0.015,0.062,0.033,0.091,0.05c0.032,0.014,0.063,0.031,0.096,0.047c0.325,0.16,0.661,0.338,1.03,0.543l0.153,0.083
	c0.072,0.036,0.146,0.076,0.214,0.116c0.453,0.264,0.885,0.535,1.281,0.808l0.04,0.025c0.029,0.021,0.057,0.044,0.083,0.066
	c0.028,0.021,0.056,0.042,0.084,0.063c0.266,0.19,0.531,0.378,0.778,0.575c0.034,0.027,0.063,0.054,0.094,0.082
	c0.029,0.025,0.058,0.053,0.088,0.077c0.104,0.086,0.203,0.176,0.302,0.264l0.078,0.069c0.244,0.215,0.473,0.433,0.683,0.646
	c0.03,0.031,0.064,0.061,0.1,0.094c0.035,0.034,0.07,0.065,0.105,0.101c0.074,0.08,0.146,0.164,0.218,0.246l0.079,0.09l0.055,0.062
	l0.074,0.084c0.136,0.162,0.265,0.328,0.39,0.495h-8.208h-0.051l0.009,0.049l0.317,3.499l-0.003,0.045h0.045h9.548
	c0.036,0.191,0.063,0.386,0.084,0.576c0.021,0.204,0.032,0.409,0.037,0.613C53.351,52.604,53.344,52.77,53.337,52.936z
	 M17.153,51.205l1.065-0.002v0.002H17.153z M18.453,48.085l0.075-0.39h0.004L18.453,48.085z M43.363,47.698v-0.003h1.127
	L43.363,47.698z M43.687,51.131l-0.006,0.074H43.68L43.687,51.131z"/>
</svg>
