<?xml version="1.0" encoding="utf-8"?>
<!-- Generator: Adobe Illustrator 17.1.0, SVG Export Plug-In . SVG Version: 6.00 Build 0)  -->
<!DOCTYPE svg PUBLIC "-//W3C//DTD SVG 1.1//EN" "http://www.w3.org/Graphics/SVG/1.1/DTD/svg11.dtd">
<svg version="1.1" id="Layer_1" xmlns="http://www.w3.org/2000/svg" xmlns:xlink="http://www.w3.org/1999/xlink" x="0px" y="0px"
	 viewBox="0 0 71.885 72.3" enable-background="new 0 0 71.885 72.3" xml:space="preserve">
<g>
	<path fill="#666766" d="M66.662,11.999l0.017-0.038l-0.047,0.002C66.641,11.975,66.651,11.987,66.662,11.999z"/>
	<path fill="#666766" d="M52.188,51.088c0,5.429,4.419,9.849,9.849,9.849c5.431,0,9.849-4.42,9.849-9.849
		c0-5.432-4.417-9.849-9.849-9.849c-0.017,0-0.034,0.002-0.05,0.002c-1.416-3.017-4.762-11.271-2.716-18.184
		c0.934-3.158,2.849-5.595,5.816-7.434l-2.208,5.082c-0.445,1.023,0.025,2.214,1.049,2.658c0.261,0.113,0.535,0.168,0.803,0.168
		c0.781,0,1.523-0.455,1.855-1.217l5.062-11.649c0.274-0.632,0.207-1.361-0.178-1.934c-0.387-0.571-1.043-0.909-1.726-0.891
		L56.814,8.168c-1.117,0.028-1.998,0.955-1.969,2.07c0.027,1.115,0.971,1.986,2.069,1.969l6.292-0.158
		c-3.94,2.374-6.579,5.684-7.816,9.879c-2.269,7.695,0.789,16.244,2.557,20.212C54.554,43.698,52.188,47.118,52.188,51.088z
		 M66.678,11.96l-0.017,0.038c-0.01-0.012-0.021-0.024-0.031-0.036L66.678,11.96z M60.793,45.416c0.004,0,0.007,0.002,0.01,0.002
		c0.201,0,0.4-0.041,0.598-0.103c0.209-0.021,0.42-0.036,0.635-0.036c3.203,0,5.808,2.605,5.808,5.809
		c0,3.202-2.605,5.808-5.808,5.808c-3.202,0-5.808-2.605-5.808-5.808C56.228,48.312,58.187,45.989,60.793,45.416z"/>
	<path fill="#666766" d="M40.315,72.3c5.429,0,9.849-4.419,9.849-9.849c0-4.622-3.206-8.501-7.507-9.557l1.184-5.309
		c2.523-12.137,1.065-21.983-4.214-28.474c-4.102-5.042-10.436-7.859-18.389-8.201l4.853-2.761c0.969-0.552,1.308-1.785,0.757-2.755
		c-0.551-0.97-1.785-1.309-2.755-0.757l-11.041,6.28c-0.6,0.34-0.983,0.964-1.019,1.653c-0.035,0.688,0.284,1.347,0.847,1.748
		l10.535,7.499c0.355,0.254,0.765,0.374,1.17,0.374c0.631,0,1.253-0.294,1.647-0.849c0.647-0.908,0.434-2.17-0.475-2.816
		l-5.013-3.569c6.991,0.229,12.299,2.464,15.748,6.704c4.486,5.514,5.66,14.194,3.399,25.072l-1.346,6.035
		c-4.588,0.837-8.079,4.856-8.079,9.681C30.467,67.881,34.884,72.3,40.315,72.3z M40.315,56.644c3.202,0,5.808,2.604,5.808,5.808
		c0,3.202-2.606,5.809-5.808,5.809c-3.203,0-5.808-2.606-5.808-5.809C34.507,59.249,37.112,56.644,40.315,56.644z"/>
	<path fill="#666766" d="M25.247,38.557c1.468,1.605,2.752,3.363,3.418,5.122c0.306,0.808,1.074,1.306,1.89,1.306
		c0.238,0,0.479-0.042,0.714-0.131c1.044-0.394,1.569-1.56,1.175-2.604c-2.693-7.117-12.537-13.51-12.955-13.778
		c-0.938-0.605-2.187-0.332-2.79,0.606c-0.604,0.937-0.333,2.188,0.604,2.791c0.046,0.029,2.379,1.549,4.962,3.798
		c-3.517,6.187-8.775,10.566-9.422,11.092c-0.945-0.303-1.949-0.468-2.993-0.468C4.418,46.291,0,50.708,0,56.139
		c0,5.429,4.418,9.848,9.849,9.848c5.43,0,9.848-4.419,9.848-9.848c0-2.853-1.225-5.417-3.168-7.217
		C18.466,47.198,22.254,43.495,25.247,38.557z M9.849,61.947c-3.202,0-5.808-2.606-5.808-5.808c0-3.203,2.606-5.809,5.808-5.809
		c3.202,0,5.808,2.605,5.808,5.809C15.656,59.34,13.05,61.947,9.849,61.947z"/>
	<path fill="#666766" d="M0.699,28.867c0.289,0.456,0.78,0.706,1.282,0.706c0.278,0,0.558-0.077,0.809-0.235
		c0.742-0.47,1.968-1.521,3.248-2.777c1.497,1.039,2.932,1.856,3.713,2.278c0.229,0.124,0.477,0.184,0.72,0.184
		c0.539,0,1.06-0.287,1.334-0.793c0.398-0.736,0.126-1.655-0.61-2.054c-1.061-0.576-2.095-1.211-3.04-1.852
		c1.158-1.325,2.144-2.653,2.566-3.654c0.326-0.771-0.034-1.66-0.805-1.986c-0.771-0.325-1.659,0.036-1.987,0.806
		c-0.301,0.714-1.169,1.842-2.206,3.007c-1.206-1.023-1.973-1.916-1.973-2.417c0-0.837-0.678-1.515-1.515-1.515
		c-0.836,0-1.515,0.678-1.515,1.515c0,1.544,1.28,3.166,2.904,4.606c-0.975,0.944-1.886,1.731-2.454,2.093
		C0.461,27.225,0.252,28.16,0.699,28.867z"/>
	<path fill="#666766" d="M50.87,2.206c-0.292-0.783-1.164-1.186-1.947-0.893c-0.822,0.307-2.239,1.082-3.75,2.046
		c-1.251-1.327-2.486-2.422-3.163-2.998c-0.637-0.541-1.594-0.466-2.136,0.173c-0.542,0.638-0.464,1.594,0.173,2.135
		c0.92,0.783,1.799,1.618,2.592,2.44c-1.409,1.058-2.647,2.153-3.269,3.046c-0.478,0.686-0.309,1.632,0.379,2.109
		c0.263,0.184,0.564,0.273,0.864,0.273c0.479,0,0.95-0.227,1.245-0.65C42.3,9.25,43.383,8.327,44.64,7.4
		c0.967,1.251,1.531,2.284,1.428,2.773c-0.174,0.819,0.349,1.623,1.168,1.797c0.106,0.022,0.211,0.032,0.315,0.032
		c0.701,0,1.33-0.489,1.482-1.201c0.318-1.511-0.598-3.362-1.888-5.108c1.148-0.722,2.203-1.304,2.833-1.538
		C50.763,3.863,51.162,2.991,50.87,2.206z"/>
</g>
</svg>
