<?xml version="1.0" encoding="utf-8"?>
<!-- Generator: Adobe Illustrator 16.1.0, SVG Export Plug-In . SVG Version: 6.00 Build 0)  -->
<!DOCTYPE svg PUBLIC "-//W3C//DTD SVG 1.1//EN" "http://www.w3.org/Graphics/SVG/1.1/DTD/svg11.dtd">
<svg version="1.1" id="Layer_1" xmlns="http://www.w3.org/2000/svg" xmlns:xlink="http://www.w3.org/1999/xlink" x="0px" y="0px"
	 width="512px" height="512px" viewBox="0 0 512 512" enable-background="new 0 0 512 512" xml:space="preserve">
<path fill-rule="evenodd" clip-rule="evenodd" fill="#ffffff" d="M498.459,363.878L309.403,37.961
	c-29.424-50.726-77.62-50.753-107.1-0.069L12.589,363.954c-29.486,50.685-5.595,92.148,53.087,92.148h379.586
	C503.943,456.102,527.883,414.604,498.459,363.878z M257.584,398.708c-18.177,0-32.637-14.437-32.637-32.603
	c0-18.159,14.459-32.602,32.637-32.602c18.171,0,32.637,14.443,32.637,32.602C290.221,384.271,275.755,398.708,257.584,398.708z
	 M280.714,312.869h-46.266l-15.574-188.155h77.42L280.714,312.869z"/>
</svg>
