<?xml version="1.0" encoding="utf-8"?>
<!-- Generator: Adobe Illustrator 16.1.0, SVG Export Plug-In . SVG Version: 6.00 Build 0)  -->
<!DOCTYPE svg PUBLIC "-//W3C//DTD SVG 1.1//EN" "http://www.w3.org/Graphics/SVG/1.1/DTD/svg11.dtd">
<svg version="1.1" id="Layer_1" xmlns="http://www.w3.org/2000/svg" xmlns:xlink="http://www.w3.org/1999/xlink" x="0px" y="0px"
	 width="512px" height="512px" viewBox="0 0 512 512" enable-background="new 0 0 512 512" xml:space="preserve">
<path fill-rule="evenodd" clip-rule="evenodd" fill="#ffffff" d="M255.5,0C114.395,0,0,114.387,0,255.5S114.395,511,255.5,511
	S511,396.613,511,255.5S396.605,0,255.5,0z M418.705,188.201L239.331,367.988c-5.164,5.184-15.369,9.418-22.685,9.418h-15.494
	c-7.312,0-17.518-4.248-22.674-9.418l-84.474-84.862c-5.16-5.184-5.15-13.654,0.021-18.824l33.241-33.24
	c5.171-5.185,13.636-5.185,18.814-0.014l53.967,53.853c5.181,5.171,13.64,5.164,18.807-0.014l147.915-148.259
	c5.164-5.177,13.633-5.205,18.821-0.048l33.067,32.839C423.848,174.575,423.868,183.017,418.705,188.201z"/>
</svg>
