<?xml version="1.0" encoding="utf-8"?>
<!-- Generator: Adobe Illustrator 16.0.0, SVG Export Plug-In . SVG Version: 6.00 Build 0)  -->
<!DOCTYPE svg PUBLIC "-//W3C//DTD SVG 1.1//EN" "http://www.w3.org/Graphics/SVG/1.1/DTD/svg11.dtd">
<svg version="1.1" id="Layer_1" xmlns="http://www.w3.org/2000/svg" xmlns:xlink="http://www.w3.org/1999/xlink" x="0px" y="0px"
	 width="512px" height="512px" viewBox="0 0 512 512" enable-background="new 0 0 512 512" xml:space="preserve">
<path fill-rule="evenodd" clip-rule="evenodd" fill="#ffffff" d="M255,0C113.611,0-1,114.611-1,256s114.611,256,256,256
	c141.375,0,256-114.611,256-256S396.375,0,255,0z M325.403,272.472l66.438,66.444c9.34,9.34,9.34,24.618,0,33.951l-18.938,18.938
	c-9.333,9.34-24.611,9.34-33.958,0l-66.438-66.438c-9.34-9.34-24.618-9.34-33.951,0l-66.444,66.438c-9.34,9.34-24.619,9.34-33.952,0
	l-18.937-18.938c-9.333-9.333-9.333-24.611,0-33.951l66.444-66.444c9.333-9.34,9.333-24.618,0-33.951l-66.444-66.445
	c-9.34-9.34-9.34-24.618,0-33.958l18.931-18.931c9.333-9.34,24.618-9.34,33.958,0l66.444,66.445c9.333,9.333,24.611,9.333,33.951,0
	l66.451-66.445c9.333-9.34,24.611-9.34,33.945,0l18.944,18.938c9.333,9.333,9.333,24.611,0,33.951l-66.444,66.445
	C316.062,247.854,316.062,263.132,325.403,272.472z"/>
</svg>
